<svg width="173" height="40" viewBox="0 0 173 40" fill="none" xmlns="http://www.w3.org/2000/svg">
<path d="M18.44 32.38C18.44 34.54 17.5867 36.22 15.88 37.42C14.2 38.6467 11.8533 39.26 8.84 39.26C7.42667 39.26 5.93333 39.1 4.36 38.78C2.78667 38.46 1.33333 37.9267 0 37.18L1.32 33.54C2.6 34.18 3.86667 34.6333 5.12 34.9C6.37333 35.1933 7.6 35.34 8.8 35.34C10.48 35.34 11.76 35.1133 12.64 34.66C13.52 34.2067 13.96 33.6067 13.96 32.86C13.96 31.7133 13.28 31.14 11.92 31.14H7.12C5.81333 31.14 4.76 30.9267 3.96 30.5C3.16 30.0733 2.57333 29.5267 2.2 28.86C1.82667 28.1667 1.64 27.4467 1.64 26.7C1.64 25.9267 1.8 25.2067 2.12 24.54C2.46667 23.8467 2.93333 23.2067 3.52 22.62C2.56 22.0333 1.78667 21.2467 1.2 20.26C0.64 19.2733 0.36 18.0867 0.36 16.7C0.36 15.1267 0.693333 13.82 1.36 12.78C2.02667 11.74 2.93333 10.9667 4.08 10.46C5.25333 9.92666 6.54667 9.65999 7.96 9.65999H8.64C9.17333 9.65999 9.69333 9.69999 10.2 9.77999C10.7067 9.83332 11.1867 9.92666 11.64 10.06H18.88V13.98L14.88 13.34C15.28 13.7667 15.5867 14.3 15.8 14.94C16.04 15.5533 16.16 16.3133 16.16 17.22C16.16 18.58 15.8133 19.7533 15.12 20.74C14.4533 21.7 13.5467 22.4467 12.4 22.98C11.28 23.4867 10.0267 23.74 8.64 23.74H7.96C7.42667 23.74 6.92 23.7 6.44 23.62C6.14667 23.94 5.93333 24.2733 5.8 24.62C5.66667 24.94 5.6 25.2467 5.6 25.54C5.6 26.4733 6.2 26.94 7.4 26.94H12.28C14.12 26.94 15.6 27.42 16.72 28.38C17.8667 29.3133 18.44 30.6467 18.44 32.38ZM8.64 19.98C9.46667 19.98 10.1867 19.7 10.8 19.14C11.44 18.58 11.76 17.7667 11.76 16.7C11.76 15.6333 11.44 14.82 10.8 14.26C10.1867 13.7 9.46667 13.42 8.64 13.42H7.96C7.10667 13.42 6.36 13.7 5.72 14.26C5.10667 14.82 4.8 15.6333 4.8 16.7C4.8 17.7667 5.10667 18.58 5.72 19.14C6.36 19.7 7.10667 19.98 7.96 19.98H8.64Z" fill="#9226C7"/>
<path d="M38.25 29.18C36.8633 29.74 35.5567 30.14 34.33 30.38C33.1033 30.62 31.9433 30.74 30.85 30.74C27.8367 30.74 25.5567 29.8867 24.01 28.18C22.4633 26.4733 21.69 24.2067 21.69 21.38V18.98C21.69 17.0867 22.0367 15.4467 22.73 14.06C23.4233 12.6733 24.41 11.5933 25.69 10.82C26.97 10.0467 28.4767 9.65999 30.21 9.65999C31.6233 9.65999 32.9433 9.95332 34.17 10.54C35.4233 11.1 36.4367 11.9933 37.21 13.22C38.01 14.42 38.41 15.9667 38.41 17.86C38.41 18.42 38.37 19.02 38.29 19.66C38.21 20.2733 38.0767 20.9267 37.89 21.62H26.13C26.1833 23.2733 26.5967 24.5133 27.37 25.34C28.1433 26.1667 29.3833 26.58 31.09 26.58C31.9967 26.58 32.93 26.4733 33.89 26.26C34.8767 26.0467 35.89 25.7267 36.93 25.3L38.25 29.18ZM30.21 13.54C28.9833 13.54 28.0233 13.94 27.33 14.74C26.6633 15.5133 26.2767 16.6333 26.17 18.1H33.85C33.8767 17.9667 33.89 17.8467 33.89 17.74C33.89 17.6067 33.89 17.4867 33.89 17.38C33.89 16.1 33.53 15.14 32.81 14.5C32.09 13.86 31.2233 13.54 30.21 13.54Z" fill="#9226C7"/>
<path d="M59.1094 29.18C57.7227 29.74 56.416 30.14 55.1894 30.38C53.9627 30.62 52.8027 30.74 51.7094 30.74C48.696 30.74 46.416 29.8867 44.8694 28.18C43.3227 26.4733 42.5494 24.2067 42.5494 21.38V18.98C42.5494 17.0867 42.896 15.4467 43.5894 14.06C44.2827 12.6733 45.2694 11.5933 46.5494 10.82C47.8294 10.0467 49.336 9.65999 51.0694 9.65999C52.4827 9.65999 53.8027 9.95332 55.0294 10.54C56.2827 11.1 57.296 11.9933 58.0694 13.22C58.8694 14.42 59.2694 15.9667 59.2694 17.86C59.2694 18.42 59.2294 19.02 59.1494 19.66C59.0694 20.2733 58.936 20.9267 58.7494 21.62H46.9894C47.0427 23.2733 47.456 24.5133 48.2294 25.34C49.0027 26.1667 50.2427 26.58 51.9494 26.58C52.856 26.58 53.7894 26.4733 54.7494 26.26C55.736 26.0467 56.7494 25.7267 57.7894 25.3L59.1094 29.18ZM51.0694 13.54C49.8427 13.54 48.8827 13.94 48.1894 14.74C47.5227 15.5133 47.136 16.6333 47.0294 18.1H54.7094C54.736 17.9667 54.7494 17.8467 54.7494 17.74C54.7494 17.6067 54.7494 17.4867 54.7494 17.38C54.7494 16.1 54.3894 15.14 53.6694 14.5C52.9494 13.86 52.0827 13.54 51.0694 13.54Z" fill="#9226C7"/>
<path d="M76.6888 30.34L71.6888 21.9C70.8888 22.7 70.0487 23.5 69.1687 24.3V30.34H64.5687V0.73999H69.1687V19.22C70.6887 17.6733 71.9954 16.1933 73.0888 14.78C74.2088 13.34 75.2354 11.7667 76.1687 10.06H81.4488C80.5688 11.66 79.6087 13.18 78.5687 14.62C77.5287 16.06 76.3821 17.5133 75.1288 18.98L82.2487 30.34H76.6888Z" fill="#9226C7"/>
<path d="M91.5378 26.74C92.5245 26.74 93.3378 26.58 93.9778 26.26C94.6178 25.9133 94.9378 25.4067 94.9378 24.74C94.9378 24.1533 94.7245 23.7 94.2978 23.38C93.8978 23.0333 93.1645 22.7267 92.0978 22.46L89.8178 21.86C88.0578 21.4067 86.7511 20.6467 85.8978 19.58C85.0711 18.5133 84.6578 17.2467 84.6578 15.78C84.6578 14.0467 85.2578 12.5933 86.4578 11.42C87.6578 10.2467 89.5111 9.65999 92.0178 9.65999C93.0311 9.65999 94.0978 9.77999 95.2178 10.02C96.3378 10.26 97.5111 10.6467 98.7378 11.18L97.4178 15.1C96.2978 14.5667 95.2845 14.1933 94.3778 13.98C93.4711 13.7667 92.6711 13.66 91.9778 13.66C90.0845 13.66 89.1378 14.3 89.1378 15.58C89.1378 16.0867 89.2978 16.4867 89.6178 16.78C89.9645 17.0733 90.5911 17.34 91.4978 17.58L93.7778 18.18C95.7245 18.6867 97.1378 19.46 98.0178 20.5C98.9245 21.54 99.3778 22.8467 99.3778 24.42C99.3778 26.2867 98.7378 27.8067 97.4578 28.98C96.2045 30.1533 94.2178 30.74 91.4978 30.74C89.1778 30.74 86.7378 30.2067 84.1778 29.14L85.4178 25.34C86.6711 25.8467 87.8045 26.2067 88.8178 26.42C89.8311 26.6333 90.7378 26.74 91.5378 26.74Z" fill="#9226C7"/>
<path d="M116.3 29.66C115.607 29.98 114.807 30.2333 113.9 30.42C112.993 30.6333 112.073 30.74 111.14 30.74C109.593 30.74 108.353 30.42 107.42 29.78C106.487 29.14 105.807 28.2467 105.38 27.1C104.98 25.9533 104.78 24.6467 104.78 23.18V14.06H101.5V10.06H104.78V4.77999H109.38V10.06H115.7V14.06H109.38V23.18C109.38 24.4067 109.607 25.26 110.06 25.74C110.54 26.1933 111.22 26.42 112.1 26.42C112.527 26.42 112.98 26.38 113.46 26.3C113.967 26.1933 114.527 26.02 115.14 25.78L116.3 29.66Z" fill="#9226C7"/>
<path d="M136.598 18.98V21.38C136.598 24.2067 135.825 26.4733 134.278 28.18C132.732 29.8867 130.545 30.74 127.718 30.74C124.892 30.74 122.705 29.8867 121.158 28.18C119.612 26.4733 118.838 24.2067 118.838 21.38V18.98C118.838 16.1533 119.598 13.9 121.118 12.22C122.665 10.5133 124.865 9.65999 127.718 9.65999C130.572 9.65999 132.758 10.5133 134.278 12.22C135.825 13.9 136.598 16.1533 136.598 18.98ZM131.878 18.98C131.878 17.3533 131.518 16.0867 130.798 15.18C130.078 14.2467 129.052 13.78 127.718 13.78C126.385 13.78 125.358 14.2467 124.638 15.18C123.918 16.0867 123.558 17.3533 123.558 18.98V21.38C123.558 23.0067 123.918 24.2867 124.638 25.22C125.358 26.1533 126.385 26.62 127.718 26.62C129.052 26.62 130.078 26.1533 130.798 25.22C131.518 24.2867 131.878 23.0067 131.878 21.38V18.98Z" fill="#9226C7"/>
<path d="M153.196 14.26C151.943 14.26 150.743 14.46 149.596 14.86C148.476 15.2333 147.396 15.8467 146.356 16.7V30.34H141.756V10.06H146.116V13.18C147.476 11.9 148.69 10.9933 149.756 10.46C150.823 9.92666 151.97 9.65999 153.196 9.65999V14.26Z" fill="#9226C7"/>
<path d="M172.625 29.18C171.238 29.74 169.932 30.14 168.705 30.38C167.478 30.62 166.318 30.74 165.225 30.74C162.212 30.74 159.932 29.8867 158.385 28.18C156.838 26.4733 156.065 24.2067 156.065 21.38V18.98C156.065 17.0867 156.412 15.4467 157.105 14.06C157.798 12.6733 158.785 11.5933 160.065 10.82C161.345 10.0467 162.852 9.65999 164.585 9.65999C165.998 9.65999 167.318 9.95332 168.545 10.54C169.798 11.1 170.812 11.9933 171.585 13.22C172.385 14.42 172.785 15.9667 172.785 17.86C172.785 18.42 172.745 19.02 172.665 19.66C172.585 20.2733 172.452 20.9267 172.265 21.62H160.505C160.558 23.2733 160.972 24.5133 161.745 25.34C162.518 26.1667 163.758 26.58 165.465 26.58C166.372 26.58 167.305 26.4733 168.265 26.26C169.252 26.0467 170.265 25.7267 171.305 25.3L172.625 29.18ZM164.585 13.54C163.358 13.54 162.398 13.94 161.705 14.74C161.038 15.5133 160.652 16.6333 160.545 18.1H168.225C168.252 17.9667 168.265 17.8467 168.265 17.74C168.265 17.6067 168.265 17.4867 168.265 17.38C168.265 16.1 167.905 15.14 167.185 14.5C166.465 13.86 165.598 13.54 164.585 13.54Z" fill="#9226C7"/>
</svg>
